<?xml version="1.0" encoding="UTF-8" standalone="no"?>
<!-- Created with Inkscape (http://www.inkscape.org/) -->

<svg
   xmlns:dc="http://purl.org/dc/elements/1.1/"
   xmlns:cc="http://creativecommons.org/ns#"
   xmlns:rdf="http://www.w3.org/1999/02/22-rdf-syntax-ns#"
   xmlns:svg="http://www.w3.org/2000/svg"
   xmlns="http://www.w3.org/2000/svg"
   xmlns:xlink="http://www.w3.org/1999/xlink"
   xmlns:sodipodi="http://sodipodi.sourceforge.net/DTD/sodipodi-0.dtd"
   xmlns:inkscape="http://www.inkscape.org/namespaces/inkscape"
   version="1.1"
   id="svg2"
   width="344.64001"
   height="111.36"
   viewBox="0 0 344.64001 111.36"
   sodipodi:docname="InkScape-logo-art.svg"
   inkscape:version="0.92.3 (2405546, 2018-03-11)"
   inkscape:export-filename="/home/jepasa/MEGA/Projetos_Encerrados/assinaturas/images/logo.png"
   inkscape:export-xdpi="96"
   inkscape:export-ydpi="96">
  <metadata
     id="metadata8">
    <rdf:RDF>
      <cc:Work
         rdf:about="">
        <dc:format>image/svg+xml</dc:format>
        <dc:type
           rdf:resource="http://purl.org/dc/dcmitype/StillImage" />
        <dc:title></dc:title>
      </cc:Work>
    </rdf:RDF>
  </metadata>
  <defs
     id="defs6">
    <linearGradient
       inkscape:collect="always"
       id="linearGradient854">
      <stop
         style="stop-color:#b7b7b7;stop-opacity:1"
         offset="0"
         id="stop850" />
      <stop
         style="stop-color:#ffffff;stop-opacity:0;"
         offset="1"
         id="stop852" />
    </linearGradient>
    <linearGradient
       inkscape:collect="always"
       id="linearGradient846">
      <stop
         style="stop-color:#ffffff;stop-opacity:0.0233463"
         offset="0"
         id="stop842" />
      <stop
         style="stop-color:#b7b7b7;stop-opacity:1"
         offset="1"
         id="stop844" />
    </linearGradient>
    <linearGradient
       inkscape:collect="always"
       xlink:href="#linearGradient846"
       id="linearGradient848"
       x1="180.05038"
       y1="56.342007"
       x2="180.56239"
       y2="129.45255"
       gradientUnits="userSpaceOnUse"
       gradientTransform="translate(0,8)" />
    <linearGradient
       inkscape:collect="always"
       xlink:href="#linearGradient854"
       id="linearGradient856"
       x1="189.27153"
       y1="-0.26134187"
       x2="188.79556"
       y2="90.303513"
       gradientUnits="userSpaceOnUse"
       gradientTransform="translate(0,32)" />
  </defs>
  <sodipodi:namedview
     pagecolor="#ffffff"
     bordercolor="#666666"
     borderopacity="1"
     objecttolerance="10"
     gridtolerance="10"
     guidetolerance="10"
     inkscape:pageopacity="0"
     inkscape:pageshadow="2"
     inkscape:window-width="1920"
     inkscape:window-height="1016"
     id="namedview4"
     showgrid="false"
     inkscape:zoom="2"
     inkscape:cx="13.117999"
     inkscape:cy="42.437493"
     inkscape:window-x="0"
     inkscape:window-y="27"
     inkscape:window-maximized="1"
     inkscape:current-layer="svg2"
     showguides="true"
     inkscape:guide-bbox="true"
     borderlayer="true"
     inkscape:showpageshadow="false">
    <sodipodi:guide
       position="0.26779026,9.1769663"
       orientation="0,1"
       id="guide839"
       inkscape:locked="false" />
    <sodipodi:guide
       position="0,6.1035156e-07"
       orientation="1,0"
       id="guide841"
       inkscape:locked="false" />
    <sodipodi:guide
       position="0,6.1035156e-07"
       orientation="0,1"
       id="guide843"
       inkscape:locked="false" />
    <sodipodi:guide
       position="0,111.36"
       orientation="0,1"
       id="guide845"
       inkscape:locked="false" />
    <sodipodi:guide
       position="344.64001,111.36"
       orientation="1,0"
       id="guide847"
       inkscape:locked="false" />
    <sodipodi:guide
       position="-0.3671875,7.1835937"
       orientation="0,1"
       id="guide849"
       inkscape:locked="false" />
  </sodipodi:namedview>
  <path
     style="opacity:1;fill:#ffffff;fill-opacity:1;stroke:none;stroke-width:1.5;stroke-linecap:round;stroke-linejoin:miter;stroke-miterlimit:4;stroke-dasharray:none;stroke-dashoffset:0;stroke-opacity:1"
     d="M 0,0 H 344.64001 V 111.36 H 0 Z"
     id="rect912"
     inkscape:export-xdpi="96"
     inkscape:export-ydpi="96" />
  <g
     id="g866"
     transform="matrix(0.99763232,0,0,1,0.48472322,-1.1526478)">
    <rect
       y="9.9273624"
       x="0.32932675"
       height="92.540817"
       width="343.48779"
       id="rect12"
       style="opacity:1;fill:#ffffff;fill-opacity:1;stroke:#b7b7b7;stroke-width:1.5;stroke-linecap:round;stroke-linejoin:miter;stroke-miterlimit:4;stroke-dasharray:none;stroke-dashoffset:0;stroke-opacity:1" />
    <g
       style="opacity:0.64499996"
       transform="translate(0,-20)"
       id="g860">
      <rect
         y="29.927362"
         x="0.32932675"
         height="92.540817"
         width="343.48779"
         id="rect830"
         style="opacity:1;fill:url(#linearGradient856);fill-opacity:1;stroke:none;stroke-width:1.5;stroke-linecap:round;stroke-linejoin:miter;stroke-miterlimit:4;stroke-dasharray:none;stroke-dashoffset:0;stroke-opacity:1" />
      <rect
         style="opacity:1;fill:url(#linearGradient848);fill-opacity:1;stroke:none;stroke-width:1.5;stroke-linecap:round;stroke-linejoin:miter;stroke-miterlimit:4;stroke-dasharray:none;stroke-dashoffset:0;stroke-opacity:1"
         id="rect832"
         width="343.48779"
         height="92.540817"
         x="0.32932675"
         y="29.927362" />
    </g>
  </g>
  <path
     sodipodi:nodetypes="cccc"
     inkscape:connector-curvature="0"
     id="path870"
     d="M 0,0 V 104.17641 C 20.81939,93.770326 44.998713,33.761197 42.153824,0.0063936 Z"
     style="opacity:0.25500022;fill:#000000;fill-opacity:1;stroke:none;stroke-width:1px;stroke-linecap:butt;stroke-linejoin:miter;stroke-opacity:1" />
  <path
     style="fill:#0f9bff;fill-opacity:1;stroke:none;stroke-width:1px;stroke-linecap:butt;stroke-linejoin:miter;stroke-opacity:1"
     d="M 0,0 V 102.18303 C 20.81939,91.776958 44.998713,33.761197 42.153824,0.0063936 Z"
     id="path868"
     inkscape:connector-curvature="0"
     sodipodi:nodetypes="cccc" />
  <path
     style="fill:#b1b1b1;stroke-width:0.07881977;fill-opacity:1"
     d="m 109.20526,84.109872 c -0.19133,-0.20777 -0.89765,-1.014217 -1.56959,-1.792076 -0.67194,-0.777874 -1.60819,-1.859188 -2.08056,-2.402908 -0.47236,-0.543719 -1.27471,-1.467414 -1.78298,-2.052642 -0.50827,-0.585243 -1.54249,-1.773441 -2.29827,-2.640459 -0.75578,-0.867032 -1.757388,-2.019763 -2.225788,-2.561649 -1.15853,-1.340273 -2.4493,-2.829123 -3.524295,-4.065127 -2.783052,-3.199886 -4.986398,-5.73791 -5.497533,-6.332606 C 89.906471,61.89036 89.44208,61.355411 89.194263,61.073629 88.757451,60.576953 87.127731,58.703986 85.730803,57.09323 85.354843,56.659723 84.691514,55.89714 84.256742,55.398611 83.821968,54.900074 83.220474,54.207251 82.92009,53.859003 81.888792,52.663386 78.278775,48.501857 78.198232,48.41577 78.116862,48.3288 76.61997,46.606027 74.544017,44.210109 73.922386,43.49267 73.21191,42.675129 72.96518,42.393346 72.718451,42.111564 72.068631,41.36457 71.521135,40.733362 l -0.995444,-1.14766 0.754204,-0.783422 c 0.414812,-0.430888 2.639672,-2.698751 4.944133,-5.039701 2.304462,-2.340946 5.053194,-5.134123 6.108296,-6.207053 l 1.918362,-1.950791 h 25.313624 25.31362 l 2.28076,2.307591 c 1.25441,1.269177 3.46646,3.512584 4.91564,4.985352 1.44919,1.472763 3.52162,3.572386 4.60541,4.665819 1.82271,1.838932 1.96162,1.998565 1.85176,2.128133 -0.0654,0.07705 -0.50619,0.585639 -0.9797,1.130222 -1.60675,1.847929 -2.28761,2.632418 -3.89493,4.487827 -0.88252,1.018741 -1.83779,2.119337 -2.12281,2.445762 -0.55398,0.634452 -1.71815,1.974059 -3.5941,4.135689 -0.63956,0.736965 -1.36556,1.570484 -1.61332,1.85226 -0.24776,0.281782 -0.7128,0.817343 -1.03342,1.190137 -0.74053,0.861023 -3.94885,4.558868 -4.67946,5.393436 -0.54234,0.619508 -1.28844,1.478316 -3.62741,4.175329 -0.63913,0.736962 -1.34739,1.552748 -1.5739,1.812859 -0.22652,0.260097 -0.92281,1.060701 -1.54732,1.779113 -0.62452,0.718411 -1.82702,2.101699 -2.67224,3.073967 -0.84523,0.972282 -2.23012,2.567605 -3.07754,3.545161 -2.71709,3.134383 -3.00273,3.463367 -4.68643,5.397681 -0.91036,1.045875 -2.1299,2.448567 -2.71007,3.117111 -0.58018,0.66853 -1.07981,1.225399 -1.11029,1.237482 -0.0306,0.01279 -0.21196,-0.148023 -0.4033,-0.355794 z m 1.708,-3.272185 c 0.68676,-0.791151 1.9281,-2.218776 2.7585,-3.172493 1.52892,-1.755956 2.78298,-3.200299 4.99869,-5.757143 0.67192,-0.775401 1.38131,-1.590746 1.57638,-1.811879 0.19508,-0.221118 0.90446,-1.036862 1.57639,-1.812731 0.67194,-0.77587 1.59413,-1.839315 2.04932,-2.363204 0.45519,-0.523904 1.73207,-1.994375 2.83751,-3.267736 2.52261,-2.905768 3.62523,-4.174838 4.45346,-5.125757 0.35871,-0.411834 1.17469,-1.351763 1.81331,-2.088729 1.3146,-1.517038 2.78938,-3.215662 3.90066,-4.492724 0.41497,-0.476861 1.09398,-1.257174 1.50892,-1.734035 0.41495,-0.476857 1.27744,-1.469988 1.91666,-2.206951 0.63922,-0.736966 1.47077,-1.694626 1.84789,-2.128135 0.37712,-0.433513 1.14498,-1.318088 1.70637,-1.965723 0.56139,-0.647641 1.42144,-1.6356 1.91124,-2.195467 0.48982,-0.559865 0.87997,-1.047273 0.86702,-1.083131 -0.0355,-0.09826 -1.02362,-1.113667 -5.81467,-5.975005 -2.40714,-2.442446 -4.85544,-4.934399 -5.44068,-5.537664 l -1.06407,-1.096848 -24.71775,5.5e-4 -24.717743,5.49e-4 -2.356842,2.381878 c -2.586876,2.614352 -7.051805,7.144972 -8.892811,9.023642 l -1.174332,1.198362 0.387081,0.456104 c 0.212893,0.250856 0.777237,0.903194 1.254095,1.449649 0.47686,0.54645 1.647334,1.8927 2.601054,2.991663 0.95372,1.098963 2.243818,2.585265 2.866889,3.302882 0.62307,0.717622 1.579378,1.819068 2.125131,2.447655 0.545751,0.628588 1.332436,1.533043 1.748189,2.009906 0.415752,0.476855 1.215154,1.397654 1.776448,2.046212 0.561294,0.648561 1.392959,1.606462 1.848142,2.128666 0.455184,0.522205 1.040248,1.197505 1.300142,1.500673 0.259895,0.303162 0.508177,0.589954 0.551738,0.637312 0.04357,0.04736 0.628972,0.719621 1.300911,1.493916 0.671939,0.774299 1.718271,1.978912 2.325184,2.676916 0.606911,0.698013 1.653244,1.902331 2.325182,2.676253 0.671939,0.773922 1.257644,1.445892 1.301566,1.493243 0.04393,0.04734 0.415741,0.476269 0.826268,0.95312 0.41052,0.476865 0.99529,1.151963 1.29949,1.500237 0.30419,0.34826 1.35113,1.552521 2.326518,2.67611 0.9754,1.12359 2.27001,2.614033 2.87692,3.312102 0.60691,0.69807 1.65325,1.903951 2.32518,2.67975 0.67195,0.775798 1.38132,1.591982 1.5764,1.813726 0.19508,0.221744 0.74484,0.852902 1.22171,1.402579 0.47686,0.549676 0.90676,0.999561 0.95533,0.99976 0.0486,1.56e-4 0.65022,-0.646966 1.33701,-1.438117 z m -2.29715,-5.393345 c -0.56092,-0.637186 -1.27298,-1.444485 -1.58237,-1.79401 -1.57405,-1.778288 -3.89058,-4.406053 -4.83663,-5.48647 -0.58524,-0.668346 -1.22541,-1.393197 -1.4226,-1.610761 -0.6126,-0.675922 -1.300598,-1.491623 -1.215548,-1.441173 0.0446,0.02644 0.665328,0.139025 1.379338,0.250061 6.4035,0.99605 12.54249,0.89606 18.06711,-0.294299 0.46604,-0.10036 0.84614,-0.162282 0.8447,-0.137462 -0.003,0.05516 -0.38257,0.491593 -3.18958,3.669573 -1.21382,1.374248 -2.36655,2.68555 -2.56163,2.914032 -0.19509,0.228482 -0.74377,0.854764 -1.2193,1.391732 -0.73052,0.824941 -3.03196,3.446663 -3.19299,3.637361 -0.0279,0.03298 -0.50958,-0.461342 -1.0705,-1.098528 z m -0.0465,-13.877035 c -1.24242,-1.764353 -3.33131,-3.212332 -5.58438,-3.870962 -1.28377,-0.375282 -1.74598,-0.438966 -3.152788,-0.434379 -1.05636,0.0033 -1.41155,0.03454 -1.89189,0.165703 -1.456285,0.39764 -2.471714,1.194745 -2.8185,2.212503 l -0.121655,0.357034 -0.322966,-0.354418 c -0.17757,-0.19493 -1.067751,-1.200743 -1.978119,-2.235144 -0.910369,-1.034396 -2.098577,-2.379802 -2.640463,-2.98978 -0.541885,-0.609983 -1.215795,-1.374765 -1.497575,-1.699517 -0.281781,-0.324748 -0.642436,-0.732401 -0.801454,-0.90589 -0.328133,-0.357983 -0.642132,-0.748937 -0.601519,-0.748937 0.01497,0 0.307086,0.107766 0.649141,0.239479 2.716879,1.046178 7.47425,1.619173 15.374898,1.851821 1.92207,0.0566 5.82888,0.228348 8.90663,0.391558 5.95937,0.316012 9.35639,0.834807 11.2089,1.711841 0.75542,0.35764 1.38519,0.995135 1.51416,1.532727 0.34605,1.442459 -0.85031,2.686517 -3.42232,3.558797 -2.37945,0.806974 -6.27069,1.319654 -11.15301,1.469447 l -1.45816,0.04476 z m 23.62328,-11.352898 c -1.81248,-3.545726 -5.8288,-5.799045 -11.90673,-6.680166 -2.39664,-0.347444 -3.08572,-0.376288 -9.616,-0.40246 -7.29003,-0.02921 -8.32546,-0.08919 -10.719488,-0.620891 -3.2236,-0.715946 -5.113746,-2.00157 -5.81959,-3.958336 -0.62432,-1.730761 -0.162762,-3.361713 1.346907,-4.759396 2.223513,-2.058579 7.072621,-3.534514 11.621631,-3.537301 1.96471,-0.0011 3.99,0.196036 5.77748,0.56266 3.89982,0.799877 6.65797,2.638825 8.14627,5.43141 0.50033,0.938824 0.77228,1.68483 1.03274,2.832989 l 0.2056,0.906427 5.65279,0.02021 5.65281,0.02021 0.004,-4.670594 0.004,-4.670589 1.55269,1.591646 c 0.85398,0.875406 2.80083,2.863971 4.32636,4.419026 l 2.77365,2.827376 -1.27607,1.458336 c -0.70185,0.802087 -1.55666,1.77518 -1.89958,2.162424 -0.34291,0.38725 -0.84334,0.952375 -1.11207,1.255831 -0.59981,0.67734 -2.1767,2.474328 -3.14274,3.581405 -0.89362,1.024078 -2.07631,2.364173 -2.2461,2.545031 -0.11969,0.127412 -0.14258,0.107226 -0.35855,-0.315279 z M 81.964098,45.244378 c -1.505009,-1.711241 -3.703142,-4.20345 -4.460956,-5.057755 l -0.594091,-0.669741 1.747196,-1.772345 c 1.896216,-1.923507 5.010073,-5.097587 6.630711,-6.758944 l 1.01739,-1.042953 3.966,-0.0211 c 2.1813,-0.01166 3.965991,-0.015 3.965982,-0.0075 -10e-6,0.0074 -0.434513,0.226294 -0.965562,0.48629 -3.689929,1.806568 -6.912388,4.950529 -8.616654,8.406768 -1.031272,2.091416 -1.482501,4.020899 -1.488437,6.364676 -0.002,0.769461 -0.01066,1.399032 -0.01928,1.399049 -0.0087,1.1e-5 -0.540691,-0.596863 -1.182296,-1.32639 z M 125.2793,34.450918 c -0.15833,-0.291884 -0.51076,-0.828937 -0.78317,-1.193456 -0.57145,-0.764686 -2.10226,-2.447479 -2.67551,-2.94115 -0.21528,-0.185395 -0.39145,-0.354813 -0.39147,-0.376487 -5e-5,-0.02166 1.4719,-0.02977 3.27097,-0.018 l 3.27105,0.02138 v 0.574604 c 0,0.74123 -0.23499,1.652376 -0.64374,2.495963 -0.26071,0.53807 -0.45364,0.79799 -0.97994,1.320232 -0.36043,0.357645 -0.68346,0.649663 -0.71783,0.648929 -0.0344,-5.54e-4 -0.19203,-0.240154 -0.35036,-0.532032 z"
     id="path887"
     inkscape:connector-curvature="0" />
  <flowRoot
     xml:space="preserve"
     id="flowRoot889"
     style="fill:black;fill-opacity:1;stroke:none;font-family:sans-serif;font-style:normal;font-weight:normal;font-size:40px;line-height:1.25;letter-spacing:0px;word-spacing:0px"><flowRegion
       id="flowRegion891"><rect
         id="rect893"
         width="12.843743"
         height="91.552834"
         x="164.00471"
         y="24.747066" /></flowRegion><flowPara
       id="flowPara895" /></flowRoot>  <path
     style="opacity:0.25500022;fill:#000000;fill-opacity:1;stroke:none;stroke-width:1.5;stroke-linecap:round;stroke-linejoin:miter;stroke-miterlimit:4;stroke-dasharray:none;stroke-dashoffset:0;stroke-opacity:1"
     d="m 164.99271,22.112452 h 1.3173 V 91.92972 h -1.3173 z"
     id="rect897" />
  <flowRoot
     xml:space="preserve"
     id="flowRoot900"
     style="font-style:normal;font-weight:normal;font-size:10.66666698px;line-height:1.25;font-family:sans-serif;letter-spacing:0px;word-spacing:0px;fill:#b1b1b1;fill-opacity:1;stroke:none;"><flowRegion
       id="flowRegion902"
       style="font-size:10.66666698px;fill:#b1b1b1;fill-opacity:1;"><rect
         id="rect904"
         width="140.62253"
         height="68.499962"
         x="185.08163"
         y="21.783125"
         style="font-size:10.66666698px;fill:#b1b1b1;fill-opacity:1;" /></flowRegion><flowPara
       id="flowPara906">Lorem ipsum dolor</flowPara><flowPara
       id="flowPara910">sit amet, consectetur adipiscing elit. Nulla tempus massa lacus.</flowPara><flowPara
       id="flowPara908">Duis dignissim diam. purus cursus imperdiet. Nam iaculis ante a tempor pharetra. Quisque semper, magna id rhoncus aliquet,</flowPara></flowRoot></svg>
